<mxfile host="app.diagrams.net" modified="2021-05-17T18:26:45.644Z" agent="5.0 (Windows NT 10.0; Win64; x64) AppleWebKit/537.36 (KHTML, like Gecko) Chrome/90.0.4430.212 Safari/537.36" etag="GgQWN2xQdxWE1ijq3y11" version="14.6.13" type="github">
  <diagram id="eGTY_Tlfv-x5R9FSA6Rd" name="Page-1">
    <mxGraphModel dx="1422" dy="743" grid="1" gridSize="10" guides="1" tooltips="1" connect="1" arrows="1" fold="1" page="1" pageScale="1" pageWidth="1100" pageHeight="850" math="0" shadow="0">
      <root>
        <mxCell id="0" />
        <mxCell id="1" parent="0" />
        <mxCell id="2TQ8XuGD4BtOBQHRCpVE-1" value="" style="rounded=1;whiteSpace=wrap;html=1;arcSize=1;sketch=0;glass=0;shadow=0;fillColor=#f5f5f5;strokeColor=#666666;fontColor=#333333;" parent="1" vertex="1">
          <mxGeometry x="10" y="10" width="880" height="670" as="geometry" />
        </mxCell>
        <mxCell id="2TQ8XuGD4BtOBQHRCpVE-4" value="Covid 19 Tracker" style="text;html=1;strokeColor=none;fillColor=none;align=center;verticalAlign=middle;whiteSpace=wrap;rounded=0;shadow=0;glass=0;sketch=0;fontSize=22;" parent="1" vertex="1">
          <mxGeometry x="70" y="40" width="190" height="30" as="geometry" />
        </mxCell>
        <mxCell id="2TQ8XuGD4BtOBQHRCpVE-6" value="Worldwide" style="rounded=1;whiteSpace=wrap;html=1;shadow=0;glass=0;sketch=0;fontSize=14;" parent="1" vertex="1">
          <mxGeometry x="420" y="50" width="140" height="25" as="geometry" />
        </mxCell>
        <mxCell id="2TQ8XuGD4BtOBQHRCpVE-7" value="" style="rounded=1;whiteSpace=wrap;html=1;shadow=0;glass=0;sketch=0;fontSize=14;" parent="1" vertex="1">
          <mxGeometry x="85" y="120" width="140" height="90" as="geometry" />
        </mxCell>
        <mxCell id="2TQ8XuGD4BtOBQHRCpVE-9" value="Coronavirus cases" style="text;html=1;strokeColor=none;fillColor=none;align=left;verticalAlign=middle;whiteSpace=wrap;rounded=0;shadow=0;glass=0;sketch=0;fontSize=12;" parent="1" vertex="1">
          <mxGeometry x="90" y="130" width="110" height="20" as="geometry" />
        </mxCell>
        <mxCell id="2TQ8XuGD4BtOBQHRCpVE-12" value="1.2 M Total" style="text;html=1;strokeColor=none;fillColor=none;align=left;verticalAlign=middle;whiteSpace=wrap;rounded=0;shadow=0;glass=0;sketch=0;fontSize=12;" parent="1" vertex="1">
          <mxGeometry x="90" y="180" width="110" height="20" as="geometry" />
        </mxCell>
        <mxCell id="2TQ8XuGD4BtOBQHRCpVE-23" value="" style="rounded=1;whiteSpace=wrap;html=1;shadow=0;glass=0;sketch=0;fontSize=14;" parent="1" vertex="1">
          <mxGeometry x="410" y="120" width="150" height="90" as="geometry" />
        </mxCell>
        <mxCell id="2TQ8XuGD4BtOBQHRCpVE-24" value="Deaths" style="text;html=1;strokeColor=none;fillColor=none;align=left;verticalAlign=middle;whiteSpace=wrap;rounded=0;shadow=0;glass=0;sketch=0;fontSize=12;" parent="1" vertex="1">
          <mxGeometry x="420" y="130" width="110" height="20" as="geometry" />
        </mxCell>
        <mxCell id="2TQ8XuGD4BtOBQHRCpVE-25" value="+2,000" style="text;html=1;strokeColor=none;fillColor=none;align=left;verticalAlign=middle;whiteSpace=wrap;rounded=0;shadow=0;glass=0;sketch=0;fontSize=12;" parent="1" vertex="1">
          <mxGeometry x="420" y="155" width="110" height="20" as="geometry" />
        </mxCell>
        <mxCell id="2TQ8XuGD4BtOBQHRCpVE-26" value="1.2 M Total" style="text;html=1;strokeColor=none;fillColor=none;align=left;verticalAlign=middle;whiteSpace=wrap;rounded=0;shadow=0;glass=0;sketch=0;fontSize=12;" parent="1" vertex="1">
          <mxGeometry x="420" y="180" width="110" height="20" as="geometry" />
        </mxCell>
        <mxCell id="2TQ8XuGD4BtOBQHRCpVE-29" value="" style="rounded=1;whiteSpace=wrap;html=1;shadow=0;glass=0;sketch=0;fontSize=14;" parent="1" vertex="1">
          <mxGeometry x="240" y="120" width="150" height="90" as="geometry" />
        </mxCell>
        <mxCell id="2TQ8XuGD4BtOBQHRCpVE-30" value="Recovered" style="text;html=1;strokeColor=none;fillColor=none;align=left;verticalAlign=middle;whiteSpace=wrap;rounded=0;shadow=0;glass=0;sketch=0;fontSize=12;" parent="1" vertex="1">
          <mxGeometry x="250" y="130" width="110" height="20" as="geometry" />
        </mxCell>
        <mxCell id="2TQ8XuGD4BtOBQHRCpVE-31" value="+2,000" style="text;html=1;strokeColor=none;fillColor=none;align=left;verticalAlign=middle;whiteSpace=wrap;rounded=0;shadow=0;glass=0;sketch=0;fontSize=12;" parent="1" vertex="1">
          <mxGeometry x="90" y="155" width="110" height="20" as="geometry" />
        </mxCell>
        <mxCell id="2TQ8XuGD4BtOBQHRCpVE-32" value="1.2 M Total" style="text;html=1;strokeColor=none;fillColor=none;align=left;verticalAlign=middle;whiteSpace=wrap;rounded=0;shadow=0;glass=0;sketch=0;fontSize=12;" parent="1" vertex="1">
          <mxGeometry x="250" y="180" width="110" height="20" as="geometry" />
        </mxCell>
        <mxCell id="2TQ8XuGD4BtOBQHRCpVE-33" value="" style="rounded=1;whiteSpace=wrap;html=1;shadow=0;glass=0;sketch=0;fontSize=12;align=left;arcSize=2;" parent="1" vertex="1">
          <mxGeometry x="90" y="240" width="470" height="390" as="geometry" />
        </mxCell>
        <mxCell id="2TQ8XuGD4BtOBQHRCpVE-41" value="+5000" style="text;html=1;strokeColor=none;fillColor=none;align=left;verticalAlign=middle;whiteSpace=wrap;rounded=0;shadow=0;glass=0;sketch=0;fontSize=12;" parent="1" vertex="1">
          <mxGeometry x="250" y="150" width="70" height="20" as="geometry" />
        </mxCell>
        <mxCell id="2TQ8XuGD4BtOBQHRCpVE-45" value="" style="shape=image;html=1;verticalAlign=top;verticalLabelPosition=bottom;labelBackgroundColor=#ffffff;imageAspect=0;aspect=fixed;image=https://cdn4.iconfinder.com/data/icons/small-n-flat/24/map-128.png;rounded=1;shadow=0;glass=0;sketch=0;fontSize=12;align=left;" parent="1" vertex="1">
          <mxGeometry x="182.5" y="280" width="285" height="285" as="geometry" />
        </mxCell>
        <mxCell id="2TQ8XuGD4BtOBQHRCpVE-46" value="" style="rounded=1;whiteSpace=wrap;html=1;shadow=0;glass=0;sketch=0;fontSize=12;align=left;arcSize=4;" parent="1" vertex="1">
          <mxGeometry x="570" y="120" width="260" height="510" as="geometry" />
        </mxCell>
        <mxCell id="jxLb7XPW1R7pvpRHZft7-1" value="Text" style="text;html=1;strokeColor=none;fillColor=none;align=center;verticalAlign=middle;whiteSpace=wrap;rounded=0;" vertex="1" parent="1">
          <mxGeometry x="400" y="370" width="40" height="20" as="geometry" />
        </mxCell>
        <mxCell id="jxLb7XPW1R7pvpRHZft7-2" value="Text" style="text;html=1;strokeColor=none;fillColor=none;align=center;verticalAlign=middle;whiteSpace=wrap;rounded=0;" vertex="1" parent="1">
          <mxGeometry x="400" y="370" width="40" height="20" as="geometry" />
        </mxCell>
        <mxCell id="jxLb7XPW1R7pvpRHZft7-3" value="Cases by Country" style="text;html=1;strokeColor=none;fillColor=none;align=center;verticalAlign=middle;whiteSpace=wrap;rounded=0;fontSize=16;fontStyle=1" vertex="1" parent="1">
          <mxGeometry x="568" y="135" width="160" height="20" as="geometry" />
        </mxCell>
        <mxCell id="jxLb7XPW1R7pvpRHZft7-4" value="Worldwide Cases" style="text;html=1;strokeColor=none;fillColor=none;align=center;verticalAlign=middle;whiteSpace=wrap;rounded=0;fontSize=16;fontStyle=1" vertex="1" parent="1">
          <mxGeometry x="580" y="460" width="160" height="20" as="geometry" />
        </mxCell>
        <mxCell id="jxLb7XPW1R7pvpRHZft7-5" value="Label" style="verticalLabelPosition=bottom;verticalAlign=top;html=1;shape=mxgraph.infographic.shadedCube;isoAngle=15;fillColor=#10739E;strokeColor=none;fontStyle=1;fontColor=#10739E;fontSize=12;shadow=0;" vertex="1" parent="1">
          <mxGeometry x="580" y="510" width="40" height="80" as="geometry" />
        </mxCell>
        <mxCell id="jxLb7XPW1R7pvpRHZft7-6" value="Label" style="verticalLabelPosition=bottom;verticalAlign=top;html=1;shape=mxgraph.infographic.shadedCube;isoAngle=15;fillColor=#F2931E;strokeColor=none;fontStyle=1;fontColor=#F2931E;fontSize=12;shadow=0;" vertex="1" parent="1">
          <mxGeometry x="630" y="490" width="40" height="100" as="geometry" />
        </mxCell>
        <mxCell id="jxLb7XPW1R7pvpRHZft7-7" value="Label" style="verticalLabelPosition=bottom;verticalAlign=top;html=1;shape=mxgraph.infographic.shadedCube;isoAngle=15;fillColor=#AE4132;strokeColor=none;fontStyle=1;fontColor=#AE4132;fontSize=12;shadow=0;" vertex="1" parent="1">
          <mxGeometry x="680" y="500" width="40" height="90" as="geometry" />
        </mxCell>
        <mxCell id="jxLb7XPW1R7pvpRHZft7-8" value="Label" style="verticalLabelPosition=bottom;verticalAlign=top;html=1;shape=mxgraph.infographic.shadedCube;isoAngle=15;fillColor=#23445D;strokeColor=none;fontStyle=1;fontColor=#23445D;fontSize=12;shadow=0;" vertex="1" parent="1">
          <mxGeometry x="730" y="540" width="40" height="50" as="geometry" />
        </mxCell>
        <mxCell id="jxLb7XPW1R7pvpRHZft7-9" value="Label" style="verticalLabelPosition=bottom;verticalAlign=top;html=1;shape=mxgraph.infographic.shadedCube;isoAngle=15;fillColor=#12AAB5;strokeColor=none;fontStyle=1;fontColor=#12AAB5;fontSize=12;shadow=0;" vertex="1" parent="1">
          <mxGeometry x="780" y="520" width="40" height="70" as="geometry" />
        </mxCell>
        <mxCell id="jxLb7XPW1R7pvpRHZft7-10" value="&lt;table border=&quot;0&quot; width=&quot;100%&quot; height=&quot;100%&quot; style=&quot;width:100%;height:100%;border-collapse:collapse;&quot;&gt;&lt;tr&gt;&lt;td align=&quot;center&quot;&gt;Value 1&lt;/td&gt;&lt;td align=&quot;center&quot;&gt;Value 2&lt;/td&gt;&lt;td align=&quot;center&quot;&gt;Value 3&lt;/td&gt;&lt;/tr&gt;&lt;tr&gt;&lt;td align=&quot;center&quot;&gt;Value 4&lt;/td&gt;&lt;td align=&quot;center&quot;&gt;Value 5&lt;/td&gt;&lt;td align=&quot;center&quot;&gt;Value 6&lt;/td&gt;&lt;/tr&gt;&lt;tr&gt;&lt;td align=&quot;center&quot;&gt;Value 7&lt;/td&gt;&lt;td align=&quot;center&quot;&gt;Value 8&lt;/td&gt;&lt;td align=&quot;center&quot;&gt;Value 9&lt;/td&gt;&lt;/tr&gt;&lt;/table&gt;" style="text;html=1;strokeColor=#c0c0c0;fillColor=none;overflow=fill;fontSize=16;" vertex="1" parent="1">
          <mxGeometry x="590" y="170" width="220" height="150" as="geometry" />
        </mxCell>
      </root>
    </mxGraphModel>
  </diagram>
</mxfile>
